<svg viewBox="-3.6486486486486487 2.42 111.35135135135134 96.39" version="1.1" xmlns="http://www.w3.org/2000/svg" style="max-height: 500px" width="111.35135135135134" height="96.39">
 <path fill-rule="evenodd" d="m77.316 28.254c2.4219 1.6758 4.4883 3.8125 6.0859 6.2891h-5.6914c-0.57813-1.5273-1.3008-2.9922-2.1602-4.375l-0.058593-0.09375zm-49.008 19.746c5.8242 0.058594 10.516 4.7969 10.516 10.621 0 5.8242-4.6914 10.562-10.516 10.621 5.5898-0.007813 10.992 1.9805 15.242 5.6055h-3.4375c-1.6758 0.003906-3.0312 1.3633-3.0352 3.0352v3.5586c0 0.96875 0.45703 1.8789 1.2383 2.4531v7.6406c0 0.41406 0.085938 0.82422 0.24609 1.207h-31.387c-0.64062 0-1.25-0.26953-1.6758-0.74609-0.42578-0.47266-0.63281-1.1055-0.56641-1.7422 0.61328-5.7695 3.3438-11.109 7.6562-14.992 4.3164-3.8789 9.918-6.0234 15.719-6.0234-2.8359 0.027344-5.5625-1.0781-7.5781-3.0742-2.0156-1.9922-3.1484-4.7109-3.1484-7.5469 0-2.832 1.1328-5.5508 3.1484-7.5469 2.0156-1.9961 4.7422-3.1016 7.5781-3.0742zm27.191 28.68v-3.1211h-6.4297v3.1211zm-8.9414 0v-4.3789c0.003906-0.69141 0.5625-1.25 1.2539-1.25h8.9414c0.33203 0 0.65234 0.13281 0.88672 0.36719 0.23828 0.23828 0.36719 0.55469 0.36719 0.89062v4.375h6.4453c0.66406 0.003906 1.2031 0.53906 1.207 1.2031v3.5586c0.003906 0.53906-0.34766 1.0117-0.86719 1.1602l-12.16 3.5781c-0.22266 0.070312-0.46094 0.070312-0.67969 0l-12.18-3.5859c-0.51563-0.14844-0.87109-0.62109-0.86328-1.1602v-3.5547c0.003906-0.66406 0.53906-1.2031 1.2031-1.207zm17.863 7.9375v6.918c0 0.32031-0.12891 0.62891-0.35547 0.85547-0.22266 0.22656-0.53125 0.35156-0.85156 0.35156h-21.859c-0.32031 0-0.62891-0.125-0.85156-0.35156-0.22656-0.22656-0.35547-0.53516-0.35547-0.85547v-6.918l11.281 3.3242c0.55859 0.16406 1.1562 0.16406 1.7148 0zm-12.434-68.105c-0.23047-0.62891 0.078125-1.332 0.69531-1.5898 0.62109-0.26172 1.332 0.011719 1.6211 0.62109l1.8359 4.375v-0.003907c0.26562 0.64063-0.035156 1.375-0.67188 1.6445l-4.375 1.8359c-0.63281 0.23438-1.3359-0.070312-1.5938-0.69141-0.26172-0.62109 0.011719-1.3359 0.62109-1.625l1.1719-0.48828c-2.8359-0.82422-5.7773-1.2227-8.7266-1.1758-2.8633 0.12891-5.0352 0.94922-6.1484 2.5664-1.9414 2.8203-0.78516 7.4922 2.6328 12.773 3.6211 5.5781 9.75 11.699 17.527 17.039 7.7773 5.3398 15.684 8.8672 22.199 10.25 6.1523 1.3047 10.934 0.70312 12.867-2.1133 1.0078-1.4727 1.168-3.4727 0.59375-5.8125-0.92578-3.1875-2.4492-6.168-4.4922-8.7852-0.40625-0.55859-0.28516-1.3398 0.27344-1.7461 0.55859-0.40625 1.3398-0.28516 1.7461 0.27344 2.2383 2.8828 3.9023 6.1641 4.9062 9.6719 0.74609 3.0352 0.47656 5.7227-0.96484 7.8125-2.5664 3.7422-8.2812 4.6719-15.449 3.1484-6.8125-1.4414-15.043-5.0977-23.09-10.633s-14.422-11.902-18.211-17.746c-3.9922-6.1484-5.1758-11.812-2.6094-15.547 1.6016-2.332 4.4609-3.4961 8.1133-3.6602h-0.003907c3.5-0.042969 6.9844 0.46094 10.324 1.4961zm27.977-6.5586c3.5977 3.6133 3.5977 9.4492 0 13.062l-6.5273 6.5273-6.5273-6.5273h0.003906c-3.5938-3.6133-3.5938-9.4492 0-13.062 3.6094-3.5938 9.4492-3.5938 13.059 0zm-3.707 3.707c1.1406 1.1445 1.4844 2.8594 0.86719 4.3516-0.62109 1.4922-2.0742 2.4609-3.6875 2.4609-1.6172 0-3.0703-0.96875-3.6875-2.4609-0.61719-1.4922-0.27734-3.207 0.86328-4.3516 0.75-0.74609 1.7656-1.168 2.8242-1.168s2.0742 0.42187 2.8203 1.168zm-1.2422 20.883h-9.2266v-8.9258c0.52734 0.085937 1.043 0.22266 1.5469 0.41016l6.1055 6.1055 0.23438-0.23437c0.50781 0.84766 0.95703 1.7344 1.3438 2.6445zm-11.738 0h-9.2266c0.44922-1.0547 0.98047-2.0742 1.5898-3.043 2.0273-3.2461 4.6992-5.4023 7.6367-5.8828zm-11.926 0h-5.6836c2.8828-4.4688 7.2578-7.7734 12.344-9.3242-1.8008 1.3477-3.3203 3.0273-4.4883 4.9453-0.86328 1.3867-1.5898 2.8516-2.168 4.375zm33.457 2.5078c2.7852 5.8633 2.9023 12.645 0.31641 18.598h-6.3789c1.5586-6.1094 1.4922-12.52-0.19141-18.598zm-8.6562 18.598h-9.5195c-0.28516-0.14063-0.55859-0.29297-0.84375-0.43359v-18.164h10.152c0.95703 3.1289 1.4375 6.3867 1.418 9.6562 0.011719 3.0234-0.39453 6.0312-1.2031 8.9414zm-21.609 0h-1.625c-0.13281-0.45313-0.25391-0.92188-0.35938-1.3906 0.52734 0.375 1.0508 0.75 1.5781 1.1133l0.40234 0.27734zm-2.8203-9.8203h-0.003906c0.058594-2.9766 0.53516-5.9297 1.4102-8.7773h10.145l0.003906 16.789c-1.9805-1.1289-3.8789-2.332-5.6562-3.5508-1.9648-1.3555-3.957-2.8438-5.8945-4.4609zm-1.3984 9.8203h-6.3867c-1.2266-2.8203-1.8555-5.8633-1.8516-8.9414 0-0.45312 0.015624-0.90625 0.042968-1.3477 2.3359 2.3828 4.8281 4.6094 7.457 6.6641 0.17969 1.2227 0.42578 2.4297 0.73828 3.625zm-6.5156-17.578c0.14062-0.33984 0.29688-0.67969 0.45312-1.0156h6.2539c-0.61719 2.1836-1.0195 4.4258-1.1992 6.6875-1.957-1.7695-3.8008-3.6641-5.5078-5.6719zm40.035 20.086c-0.53125 0.89453-1.125 1.75-1.7734 2.5625-0.97656-0.10547-1.9453-0.26172-2.9062-0.46875-0.60937-0.12891-1.2188-0.27734-1.8359-0.43359 0.23438-0.53906 0.44922-1.0898 0.65234-1.6602zm-7.6445 7.7266v0.003907c-1.6055 0.98047-3.3359 1.7539-5.1367 2.3047 1.1289-0.82812 2.1445-1.8008 3.0195-2.8945 0.71094 0.21094 1.4102 0.41016 2.1211 0.58984zm-18.191 2.3086c-5.3633-1.6328-9.9219-5.2109-12.781-10.035h5.8633c0.625 1.7812 1.4375 3.4883 2.4297 5.0938 1.168 1.918 2.6914 3.5938 4.4883 4.9414zm-4.2461-10.031h4.6953c1.5586 0.94922 3.1758 1.8438 4.8203 2.6953v6.9492c-2.9375-0.48828-5.6094-2.6445-7.6367-5.8828v-0.007813c-0.74219-1.1914-1.3711-2.4492-1.8789-3.7578zm18.484 0h3.0625c-0.12891 0.31641-0.26172 0.63672-0.39844 0.94922-0.88672-0.28906-1.7773-0.60938-2.6641-0.94922zm-0.74609 6.2969v-0.003906c-1.4766 1.7188-3.4883 2.8984-5.7109 3.3477v-5.7148c1.8789 0.87891 3.7891 1.6836 5.7148 2.3672z"/>
<text fill="#FFFFFF" font-family="Arbeit Regular, Helvetica, Arial-Unicode, Arial, Sans-serif" font-weight="bold" font-size="5.0" y="117.5" x="0.0">Created by feri ulan taufiq</text><text fill="#000000" font-family="Arbeit Regular, Helvetica, Arial-Unicode, Arial, Sans-serif" font-weight="bold" font-size="5.0" y="122.5" x="0.0">from Noun Project</text></svg>